<svg width="128" height="128" viewBox="0 0 128 128" fill="none" xmlns="http://www.w3.org/2000/svg">
<g clip-path="url(#clip0_110_417)">
<path d="M64.0002 7.11108C52.7487 7.11108 41.7498 10.4476 32.3945 16.6986C23.0391 22.9496 15.7475 31.8344 11.4418 42.2295C7.13598 52.6246 6.00939 64.0631 8.20446 75.0984C10.3995 86.1338 15.8177 96.2704 23.7737 104.226C31.7298 112.183 41.8664 117.601 52.9018 119.796C63.9371 121.991 75.3756 120.864 85.7707 116.558C96.1658 112.253 105.051 104.961 111.302 95.6057C117.553 86.2504 120.889 75.2515 120.889 64C120.889 48.9121 114.895 34.4422 104.227 23.7735C93.558 13.1047 79.0881 7.11108 64.0002 7.11108ZM64.0002 113.778C54.1551 113.778 44.5311 110.858 36.3452 105.389C28.1593 99.919 21.7791 92.1448 18.0116 83.0491C14.244 73.9534 13.2582 63.9447 15.1789 54.2888C17.0996 44.6329 21.8405 35.7633 28.802 28.8018C35.7636 21.8402 44.6331 17.0993 54.2891 15.1787C63.945 13.258 73.9537 14.2437 83.0494 18.0113C92.1451 21.7789 99.9193 28.159 105.389 36.3449C110.859 44.5308 113.778 54.1549 113.778 64C113.778 77.2019 108.534 89.863 99.1984 99.1982C89.8633 108.533 77.2021 113.778 64.0002 113.778Z" fill="url(#paint0_angular_110_417)"/>
<path d="M99.5551 43.0222C98.8889 42.36 97.9878 41.9883 97.0485 41.9883C96.1091 41.9883 95.208 42.36 94.5418 43.0222L55.0751 82.3111L33.7418 60.9778C33.0911 60.2752 32.188 59.86 31.2312 59.8233C30.2743 59.7866 29.3421 60.1315 28.6396 60.7822C27.937 61.4329 27.5217 62.336 27.4851 63.2928C27.4484 64.2497 27.7933 65.1819 28.444 65.8844L55.0751 92.4444L99.5551 48.0711C99.8884 47.7406 100.153 47.3473 100.333 46.914C100.514 46.4808 100.607 46.016 100.607 45.5467C100.607 45.0773 100.514 44.6126 100.333 44.1793C100.153 43.746 99.8884 43.3527 99.5551 43.0222Z" fill="url(#paint1_angular_110_417)"/>
</g>
<defs>
<radialGradient id="paint0_angular_110_417" cx="0" cy="0" r="1" gradientUnits="userSpaceOnUse" gradientTransform="translate(64.0002 64) rotate(90) scale(56.8889)">
<stop stop-color="#FF0000"/>
<stop offset="0.205917" stop-color="#FF27B5"/>
<stop offset="1" stop-color="#FF0000"/>
</radialGradient>
<radialGradient id="paint1_angular_110_417" cx="0" cy="0" r="1" gradientUnits="userSpaceOnUse" gradientTransform="translate(64.0446 67.2164) rotate(90) scale(25.2281 36.5622)">
<stop stop-color="#FF0000"/>
<stop offset="0.205917" stop-color="#FF27B5"/>
<stop offset="1" stop-color="#FF0000"/>
</radialGradient>
<clipPath id="clip0_110_417">
<rect width="128" height="128" fill="white"/>
</clipPath>
</defs>
</svg>
