<svg width="24" height="24" viewBox="0 0 24 24" fill="none" xmlns="http://www.w3.org/2000/svg">
<path d="M0 5.19V0H5.19V1.8H1.8V5.19H0ZM0 24V18.81H1.8V22.2H5.19V24H0ZM18.81 24V22.2H22.2V18.81H24V24H18.81ZM22.2 5.19V1.8H18.81V0H24V5.19H22.2ZM18.84 18.87H20.73V20.76H18.84V18.87ZM18.84 15.09H20.73V16.98H18.84V15.09ZM16.95 16.98H18.84V18.87H16.95V16.98ZM15.06 18.87H16.95V20.76H15.06V18.87ZM13.17 16.98H15.06V18.87H13.17V16.98ZM16.95 13.2H18.84V15.09H16.95V13.2ZM15.06 15.09H16.95V16.98H15.06V15.09ZM13.17 13.2H15.06V15.09H13.17V13.2ZM20.73 3.24V10.8H13.17V3.24H20.73ZM10.8 13.2V20.76H3.24V13.2H10.8ZM10.8 3.24V10.8H3.24V3.24H10.8ZM9.3 19.26V14.7H4.74V19.26H9.3ZM9.3 9.3V4.74H4.74V9.3H9.3ZM19.23 9.3V4.74H14.67V9.3H19.23Z" fill="url(#paint0_angular_147_967)"/>
<defs>
<radialGradient id="paint0_angular_147_967" cx="0" cy="0" r="1" gradientUnits="userSpaceOnUse" gradientTransform="translate(12 12) rotate(90) scale(12)">
<stop stop-color="#FF0000"/>
<stop offset="0.205917" stop-color="#FF27B5"/>
<stop offset="1" stop-color="#FF0000"/>
</radialGradient>
</defs>
</svg>
