<svg width="64" height="65" viewBox="0 0 64 65" fill="none" xmlns="http://www.w3.org/2000/svg">
<g clip-path="url(#clip0_119_506)">
<path d="M55.9997 40.5V48.5H63.9997V53.8333H55.9997V61.8333H50.6663V53.8333H42.6663V48.5H50.6663V40.5H55.9997ZM56.021 8.5C57.4823 8.5 58.6663 9.68667 58.6663 11.148V36.0787C56.9534 35.4736 55.1497 35.1652 53.333 35.1667V13.8333H10.6663L10.669 51.1667L35.4477 26.3853C35.9062 25.9253 36.5171 25.6486 37.1653 25.6074C37.8135 25.5661 38.4545 25.7631 38.9677 26.1613L39.2157 26.388L48.6717 35.8547C46.6041 36.4847 44.6854 37.527 43.0315 38.9186C41.3776 40.3102 40.0226 42.0223 39.0483 43.9517C38.074 45.8812 37.5005 47.9879 37.3625 50.145C37.2244 52.3021 37.5246 54.4648 38.245 56.5027L7.97834 56.5C7.27651 56.4993 6.60367 56.22 6.10765 55.7235C5.61163 55.227 5.33301 54.5538 5.33301 53.852V11.148C5.33789 10.4477 5.61808 9.77738 6.11304 9.28191C6.60801 8.78645 7.27802 8.50559 7.97834 8.5H56.021ZM21.333 19.1667C22.7475 19.1667 24.104 19.7286 25.1042 20.7288C26.1044 21.729 26.6663 23.0855 26.6663 24.5C26.6663 25.9145 26.1044 27.271 25.1042 28.2712C24.104 29.2714 22.7475 29.8333 21.333 29.8333C19.9185 29.8333 18.562 29.2714 17.5618 28.2712C16.5616 27.271 15.9997 25.9145 15.9997 24.5C15.9997 23.0855 16.5616 21.729 17.5618 20.7288C18.562 19.7286 19.9185 19.1667 21.333 19.1667Z" fill="url(#paint0_angular_119_506)"/>
</g>
<defs>
<radialGradient id="paint0_angular_119_506" cx="0" cy="0" r="1" gradientUnits="userSpaceOnUse" gradientTransform="translate(34.6663 35.1667) rotate(90) scale(26.6667 29.3333)">
<stop stop-color="#FF0000"/>
<stop offset="0.205917" stop-color="#FF27B5"/>
<stop offset="1" stop-color="#FF0000"/>
</radialGradient>
<clipPath id="clip0_119_506">
<rect width="64" height="64" fill="white" transform="translate(0 0.5)"/>
</clipPath>
</defs>
</svg>
