<svg width="17" height="22" viewBox="0 0 17 22" fill="none" xmlns="http://www.w3.org/2000/svg">
<path d="M16.2344 9.64062C16.2344 9.5375 16.15 9.45312 16.0469 9.45312H14.6406C14.5375 9.45312 14.4531 9.5375 14.4531 9.64062C14.4531 12.9289 11.7883 15.5938 8.5 15.5938C5.21172 15.5938 2.54688 12.9289 2.54688 9.64062C2.54688 9.5375 2.4625 9.45312 2.35938 9.45312H0.953125C0.85 9.45312 0.765625 9.5375 0.765625 9.64062C0.765625 13.5945 3.73281 16.857 7.5625 17.3187V19.7188H4.15703C3.83594 19.7188 3.57812 20.0539 3.57812 20.4688V21.3125C3.57812 21.4156 3.64375 21.5 3.72344 21.5H13.2766C13.3562 21.5 13.4219 21.4156 13.4219 21.3125V20.4688C13.4219 20.0539 13.1641 19.7188 12.843 19.7188H9.34375V17.3305C13.218 16.9086 16.2344 13.6273 16.2344 9.64062ZM8.5 13.625C10.7008 13.625 12.4844 11.8625 12.4844 9.6875V4.4375C12.4844 2.2625 10.7008 0.5 8.5 0.5C6.29922 0.5 4.51562 2.2625 4.51562 4.4375V9.6875C4.51562 11.8625 6.29922 13.625 8.5 13.625ZM6.29688 4.4375C6.29688 3.25156 7.27891 2.28125 8.5 2.28125C9.72109 2.28125 10.7031 3.25156 10.7031 4.4375V9.6875C10.7031 10.8734 9.72109 11.8438 8.5 11.8438C7.27891 11.8438 6.29688 10.8734 6.29688 9.6875V4.4375Z" fill="#606060"/>
</svg>
